/* XPM */
static char *result[] = {
/* columns rows colors chars-per-pixel */
"32 32 114 2 ",
"   c #272728",
".  c #2A2928",
"X  c #322E28",
"o  c #3B3427",
"O  c #3F3727",
"+  c #37342E",
"@  c #3E382D",
"#  c #463B27",
"$  c #4C3E25",
"%  c #423A2A",
"&  c #453D2A",
"*  c #453D2E",
"=  c #483D29",
"-  c #493E2B",
";  c #413B31",
":  c #4E422A",
">  c #4A412C",
",  c #4C422D",
"<  c #4F442D",
"1  c #5E4926",
"2  c #52452D",
"3  c #52472F",
"4  c #55482D",
"5  c #484131",
"6  c #4E4530",
"7  c #524A32",
"8  c #544831",
"9  c #564A33",
"0  c #534D34",
"q  c #574D34",
"w  c #584A30",
"e  c #5A4D33",
"r  c #5E4F30",
"t  c #594F34",
"y  c #5A4E35",
"u  c #5D5037",
"i  c #5C5436",
"p  c #5C5439",
"a  c #654F2A",
"s  c #675029",
"d  c #685028",
"f  c #68542C",
"g  c #6C5A2E",
"h  c #735829",
"j  c #7B5D2D",
"k  c #655535",
"l  c #685837",
"z  c #6C5C35",
"x  c #605338",
"c  c #60553A",
"v  c #63563B",
"b  c #60573D",
"n  c #65593C",
"m  c #655A3E",
"M  c #6D5D3A",
"N  c #796331",
"B  c #706039",
"V  c #71633C",
"C  c #76643C",
"Z  c #74663C",
"A  c #77673D",
"S  c #7E6838",
"D  c #78693F",
"F  c #655B40",
"G  c #665E41",
"H  c #6F6440",
"J  c #7E6E41",
"K  c #7F7141",
"L  c #7E7549",
"P  c #84622B",
"I  c #87632E",
"U  c #8C662B",
"Y  c #8B682D",
"T  c #866932",
"R  c #886D38",
"E  c #9A7533",
"W  c #92783E",
"Q  c #9E7A39",
"!  c #807345",
"~  c #897745",
"^  c #867B4A",
"/  c #907E45",
"(  c #917F47",
")  c #AC8439",
"_  c #B98E3D",
"`  c #948045",
"'  c #91804C",
"]  c #958950",
"[  c #AE8E43",
"{  c #A58F4E",
"}  c #A98F48",
"|  c #B69549",
" . c #AA9751",
".. c #AE9E58",
"X. c #B49E52",
"o. c #B69C55",
"O. c #B0A662",
"+. c #C29B47",
"@. c #CBA348",
"#. c #C2A050",
"$. c #C3A857",
"%. c #CEAD55",
"&. c #C8AC59",
"*. c #CEB35D",
"=. c #D3B157",
"-. c #DAB556",
";. c #C8B261",
":. c #D9BB60",
">. c #DAC268",
",. c #E1C060",
"<. c #E6CE6F",
"1. c #EACB68",
"2. c #EFD570",
"3. c None",
/* pixels */
"3.3.3.3.3.3.3.3.3.3.3.3.O.] ^ ! ! ^ ]  .3.3.3.3.3.3.3.3.3.3.3.3.",
"3.3.3.3.3.3.3.3.3...K i 3 & o > 3 O % 2 r N } 3.3.3.3.3.3.3.3.3.",
"3.3.3.3.3.3.3.X.Z 3 , , , D u H V q V < q o # g [ 3.3.3.3.3.3.3.",
"3.3.3.3.3.3.W 4 3 9 t ! n H m m v c l t D 6 6 o : T 3.3.3.3.3.3.",
"3.3.3.3.3.S o O u ! b m G G G F b b p y 9 8 C 3 , = N 3.3.3.3.3.",
"3.3.3.3.N % 8 J x v m m v u D ~ e e y u q 8 < < V 4 O h 3.3.3.3.",
"3.3.3.T - , q l c v n v u 4 z A e w 8 q q q 3 > 2 , 5 O T 3.3.3.",
"3.3.E : - D l u c m n x k M n b C l e 9 q q 0 < # 2 B > $ E 3.3.",
"3.3.a % u 9 y u F G m v x l 6 @ e > @ , 8 0 0 7 , # = q 3 a 3.3.",
"3.Y > 3 A e y c F F x * X O X . X .   . o > 7 0 6 = # z 4 = Y 3.",
"3.s > q 8 9 y c b y o   @ ! ; G b F V .   X = 7 7 , # # 3 < s 3.",
"3.$ , A 8 8 y u q @   ; ' &.o.<.:.$.| ~ @   X > 7 6 = # B > $ 3.",
"P % % 3 3 8 9 3 O @ ; e :.#.=.2.,.+.&.%.3 . ; - 6 7 > O - - - U ",
"h , B r < 3 , O * y R Q &.| -.2.,.+.| #.Q l J 2 > 7 > , 2 2 2 I ",
"d > 3 2 < - O 9 ~ D Q _ @.$.*.<.:.+.+._ ) R < O - 6 , l ~ r < j ",
"1 . k 2 - o 6 x ( C R +.@.,.<.>.*.=.@._ _ f @ , = * 9 M ` r : j ",
"1 . w : - * 8 x ( ~ { *.&.:.2.>.*.-.@.+.#.~ D r - 6 y D ~ k 3 j ",
"d @ 7 , - - * 9 J { >.%.&.$.&.;.$.#.;.&.:.%.f X 3 9 w M n k y j ",
"h & z 4 = - - * 5 e l z *.%.| >.=._ >.$.z O   @ q 9 8 B D l q I ",
"P < , , # = - - % % X M ,.| ) 1.-.Q $.=.r   . 6 u 9 8 , 8 w 2 U ",
"3.4 t B # # - > - o . % 3 X 2 :.%.: X : O   ; y p 9 9 8 C w 4 3.",
"3.s 3 < = # - 6 6 - +   . + X n M X .     @ y b u e 9 8 < % s 3.",
"3.Y : 8 B # = 6 7 7 6 ; + 8 ; X 8 @   X 5 u m b u y 9 D > O Y 3.",
"3.3.a O : > = > 0 0 7 7 y l 6 ; u 6 5 u v F F c u e w e & a 3.3.",
"3.3.E : 6 V 4 > < 0 7 3 w l n b C M v v F G m x y l C = : E 3.3.",
"3.3.3.T , 2 < t < 3 7 8 2 2 B J w w x n G F v x l w < O T 3.3.3.",
"3.3.3.3.S > > B 3 0 0 q q 8 B J 8 y v m n v x u A 3 % S 3.3.3.3.",
"3.3.3.3.3.S & O 7 D q p p c b c b m n n v x ! r O & S 3.3.3.3.3.",
"3.3.3.3.3.3./ 6 & 4 t J p H m G m m H c ! e & O 4 W 3.3.3.3.3.3.",
"3.3.3.3.3.3.3.X.Z 7 < & 6 D t A B t B 3 2 < > Z [ 3.3.3.3.3.3.3.",
"3.3.3.3.3.3.3.3.3...L i 7 < O O > & & 3 i K } 3.3.3.3.3.3.3.3.3.",
"3.3.3.3.3.3.3.3.3.3.3.3.O.] ^ ! ! ^ ]  .3.3.3.3.3.3.3.3.3.3.3.3."
};
