/* XPM */
static char *result[] = {
/* columns rows colors chars-per-pixel */
"64 64 234 2 ",
"   c #1B1B1B",
".  c #1F1E1E",
"X  c #221F19",
"o  c #26231B",
"O  c #24221E",
"+  c #27241F",
"@  c #2B2519",
"#  c #2E291E",
"$  c #222222",
"%  c #252525",
"&  c #2A2721",
"*  c #2D2A23",
"=  c #272728",
"-  c gray16",
";  c #2B2B2A",
":  c #312B21",
">  c #332E22",
",  c #312D26",
"<  c #363126",
"1  c #383121",
"2  c #3C3321",
"3  c #3C3425",
"4  c #32302C",
"5  c #393328",
"6  c #3C362B",
"7  c #38352F",
"8  c #3F3828",
"9  c #3D3931",
"0  c #40341E",
"q  c #423723",
"w  c #433926",
"e  c #453A25",
"r  c #463B27",
"t  c #433B29",
"y  c #473C28",
"u  c #463D2B",
"i  c #413B2D",
"p  c #473F2D",
"a  c #483D28",
"s  c #493E2A",
"d  c #4A3F2A",
"f  c #423D31",
"g  c #4D4227",
"h  c #4B402B",
"j  c #4E412C",
"k  c #4C422C",
"l  c #4D432D",
"z  c #5F4A26",
"x  c #514429",
"c  c #51432D",
"v  c #50432F",
"b  c #50462D",
"n  c #53452E",
"m  c #56482B",
"M  c #53482F",
"N  c #594C2A",
"B  c #5A4A2D",
"V  c #4A4230",
"C  c #4E4630",
"Z  c #4D4432",
"A  c #494436",
"S  c #4F4834",
"D  c #504731",
"F  c #534731",
"G  c #524A33",
"H  c #554830",
"J  c #574B30",
"K  c #544832",
"L  c #564933",
"P  c #554A32",
"I  c #574A32",
"U  c #524C35",
"Y  c #544D35",
"T  c #574C34",
"R  c #574E36",
"E  c #5A4B31",
"W  c #5A4E30",
"Q  c #5F4D31",
"!  c #594C34",
"~  c #594E35",
"^  c #5B4E35",
"/  c #5E4F34",
"(  c #514C3A",
")  c #5F5230",
"_  c #595037",
"`  c #5C5035",
"'  c #5F5134",
"]  c #5C5037",
"[  c #555038",
"{  c #5A5139",
"}  c #5D5138",
"|  c #5C533A",
" . c #5F5439",
".. c #5E563D",
"X. c #664F28",
"o. c #67542F",
"O. c #705428",
"+. c #7C5D29",
"@. c #635233",
"#. c #605236",
"$. c #635534",
"%. c #6D5832",
"&. c #685834",
"*. c #6A5A36",
"=. c #6F5E37",
"-. c #605338",
";. c #62553A",
":. c #63573B",
">. c #60563C",
",. c #675A38",
"<. c #63583C",
"1. c #62593E",
"2. c #65593D",
"3. c #655B3F",
"4. c #6B5C3A",
"5. c #685D3F",
"6. c #755F33",
"7. c #725F3A",
"8. c #7B6837",
"9. c #74633C",
"0. c #7B673D",
"q. c #665C40",
"w. c #675E41",
"e. c #696043",
"r. c #6C6344",
"t. c #746844",
"y. c #7B6B43",
"u. c #7E7148",
"i. c #82642F",
"p. c #8B6529",
"a. c #896B2F",
"s. c #976E2C",
"d. c #9F732D",
"f. c #816A39",
"g. c #916E30",
"h. c #8B7039",
"j. c #8E743A",
"k. c #9B7C37",
"l. c #967538",
"z. c #977B3E",
"x. c #9E7D3F",
"c. c #A4752C",
"v. c #A97A2F",
"b. c #AB7B2F",
"n. c #AE7C2D",
"m. c #A27C38",
"M. c #806C40",
"N. c #857041",
"B. c #857745",
"V. c #8E7844",
"C. c #957F43",
"Z. c #8A7F50",
"A. c #B4802E",
"S. c #A7833C",
"D. c #A7823D",
"F. c #B08233",
"G. c #B38433",
"H. c #B18436",
"J. c #B88837",
"K. c #BF8C35",
"L. c #B28538",
"P. c #BB8C38",
"I. c #BB913F",
"U. c #BB923E",
"Y. c #C4933B",
"T. c #C3943C",
"R. c #C5953E",
"E. c #95804A",
"W. c #9F894B",
"Q. c #948651",
"!. c #A08646",
"~. c #A58A47",
"^. c #AB8A44",
"/. c #B18A40",
"(. c #A9914D",
"). c #BF9946",
"_. c #B39448",
"`. c #B0934C",
"'. c #B8974B",
"]. c #A08E51",
"[. c #A99755",
"{. c #AC9F5E",
"}. c #B29C53",
"|. c #B79F55",
" X c #BFA959",
".X c #BBA85F",
"XX c #BCAE69",
"oX c #C69A43",
"OX c #CA9F44",
"+X c #C99F4C",
"@X c #C09F50",
"#X c #CFA245",
"$X c #C9A149",
"%X c #CAA64F",
"&X c #CEAB4E",
"*X c #D3A445",
"=X c #D0A74A",
"-X c #D2A74B",
";X c #D4AB4E",
":X c #D8AA4A",
">X c #C0A557",
",X c #CEAD54",
"<X c #C6AE5D",
"1X c #CDB05A",
"2X c #D7B254",
"3X c #DBB657",
"4X c #D6B75E",
"5X c #DCB959",
"6X c #DFBD5A",
"7X c #DFBD5E",
"8X c #DCBE5E",
"9X c #CDB460",
"0X c #C2B469",
"qX c #CCBF6F",
"wX c #D2BE6A",
"eX c #E8C35B",
"rX c #D7C065",
"tX c #D9C065",
"yX c #D9C66D",
"uX c #D9C771",
"iX c #DECC71",
"pX c #E2C362",
"aX c #E5C664",
"sX c #E1C86A",
"dX c #E9CF6D",
"fX c #EFD36E",
"gX c #EFD66E",
"hX c #E0CE72",
"jX c #E7D576",
"kX c #EBD877",
"lX c #F0D672",
"zX c #F4DA74",
"xX c #FAEB83",
"cX c None",
/* pixels */
"cXcXcXcXcXcXcXcXcXcXcXcXcXcXcXcXcXcXcXcXcXcXcXcXcXcXxXkXjXhXuXyXwXuXhXjXkXxXcXcXcXcXcXcXcXcXcXcXcXcXcXcXcXcXcXcXcXcXcXcXcXcXcXcX",
"cXcXcXcXcXcXcXcXcXcXcXcXcXcXcXcXcXcXcXcXcXcXxXkXqX{.B.,.b w 1 1 1 1 q g ) 8.W. X8XgXcXcXcXcXcXcXcXcXcXcXcXcXcXcXcXcXcXcXcXcXcXcX",
"cXcXcXcXcXcXcXcXcXcXcXcXcXcXcXcXcXcXcXcXkX XB.b > X & + * , p ~ ;.C I + * > X @ e 8._.8XcXcXcXcXcXcXcXcXcXcXcXcXcXcXcXcXcXcXcXcX",
"cXcXcXcXcXcXcXcXcXcXcXcXcXcXcXcXcXcXrXW.b o * k #.$.4.W K u l b W b ) < T $.7.K C + o a j.&XeXcXcXcXcXcXcXcXcXcXcXcXcXcXcXcXcXcX",
"cXcXcXcXcXcXcXcXcXcXcXcXcXcXcXcXrXC.q : 5 ,.M w 3 w 8 p C , C u.y.M * f f : l b &.,.#.  o 1 a.&XcXcXcXcXcXcXcXcXcXcXcXcXcXcXcXcX",
"cXcXcXcXcXcXcXcXcXcXcXcXcXcX6X(.a + i $.,.w 1 i 5 Z {.0X!.S 4.].W.7.A E..X(.l , u 8 3 * #.5 o 0 k.6XcXcXcXcXcXcXcXcXcXcXcXcXcXcX",
"cXcXcXcXcXcXcXcXcXcXcXcXcX1X6.X D P J 8 1 _ {.>X4.Z 4.,.` | | ] _ _ _ T $.o.p -.}.].P & > ` P   X X.U.cXcXcXcXcXcXcXcXcXcXcXcXcX",
"cXcXcXcXcXcXcXcXcXcXcXeX_.e : ~ $.W 8 ;.A 9.B.,.>.w.q.q.q.q.3.<.<.>.>. .] ~ _ P ) f.6.f U u > V #.X 0 S.*XcXcXcXcXcXcXcXcXcXcXcX",
"cXcXcXcXcXcXcXcXcXcX:Xx.:   : ) 1 :..X~.S Y 1.q.w.w.w.w.q.q.q.3.3.1.<.>. .} ` T P b s p W.[.G 3 x 4.> @ g.:XcXcXcXcXcXcXcXcXcXcX",
"cXcXcXcXcXcXcXcXcX:Xj.@ , V , & 6 V.M.#.q.5.w.w.q.q.q.w.w.3.1.1.1.1.1.>...| } ` ~ I H M x 8.h., * m $.u X i.:XcXcXcXcXcXcXcXcXcX",
"cXcXcXcXcXcXcXcX:Xh.o p 4.y >.].Y p  .2.3.2.2.2.3.q.3.;.{ B.Q.4.Z / ^ } }  .| _ R T P H j d 3 p Z.V m J C X i.:XcXcXcXcXcXcXcXcX",
"cXcXcXcXcXcXcX*Xl.# T 8 w ] <Xf.] <.2.<.<.<.2.2.:.#.E B $.C.(.f.` n E E E ^ ~ _ _ Y K P M j h d f.}.k k @.. X a.*XcXcXcXcXcXcXcX",
"cXcXcXcXcXcXcXS.# 5 8 : % 4.=.} ;.:.;.;.:.<.:.;.' ^ Q n @.W..XN.! n c H M H ! ` _ R T G b b k a e o.o.O O Z 8 @ d.cXcXcXcXcXcXcX",
"cXcXcXcXcXcXU.q p ` < >.u.6 ^ -.;.;. .:.<.2.:.-./ / n n H g g x ! n Q B H H H P T _ { R G l l h r q : 3.[ s t * 0 L.cXcXcXcXcXcX",
"cXcXcXcXcXY.X.+ M W _ >X%.}  .-.-.-.;.q.3.<.-.#./ @.Q / 4.Y ( e.y.9.7./ I H I T P G R _ [ D k h d r r *.}.p P T O z Y.cXcXcXcXcX",
"cXcXcXcXcXg.# G a + V.N.! ] } } } ;.e.w.2.:.;.#.' 4.0.M.N.r.e.t.N.0.0.:.} ~ T P P T Y Y [ [ D h d a e w 8.h.: #.#.X p.cXcXcXcXcX",
"cXcXcXcXH.0 5 &.3 9 t F ^ ] ` `  .e.e.3.3.<.:.:.2.7.0.9.=.i , u ' B Q h G ~ ~ P M P R R U [ Y C h d a w q 2 * t &.5 0 H.cXcXcXcX",
"cXcXcXK.+.& , # 5.E.V ^ ` ^ ^ } w.e.q.w.q.<.:.<.:.~ B c n * % 9 ^ n c + $ & 8 F M b D Y R U Y Y C s d r w 3 B.[ W *.X O.K.cXcXcX",
"cXcXcXv.1 D 7.6 }.6.T ~ ~ ! ^ 3.q.1.w.e.<.;.;.C & , H n H 4 - 7 p w t ; - = $ + 8 b k l Y [ U Y G l s s e q 6.].3 *.l : v.cXcXcX",
"cXcXcX+.+ M 3 D C.P I T T ! >.1.>.q.w.:.} } 5 $ - ; > : , ; ; = $ $ % = - - ; = $ : h d k [ [ G G D d y r q a z.x x h O O.cXcXcX",
"cXcXF.e V H & i 8 L T I I ] >. .1.3.>.^ ^ , % ; ; 7 | 4 % ; - 9 7 - - 7 ..f - ; - % + a a k [ Y S D l a a e q 2 : * 0.8 0 b.cXcX",
"cXcXg.+ b b 5.M.V I L L L }  .| >. .~ ! * = ; ; = G 4X0X| ; ..0X.XA ( XX5Xo.= = - - = + y r l Y G D D h y r q 3 4.[ m D o p.cXcX",
"cXA.X.6 p 5 W.8.F L K K ! ] _ } } ! ! < = ; ; 9 ( ~ ,XfX@Xu.iXzXdX<X(.dX;Xo.f q.7 - - = & r r S Y S D l a y w q 8.E.t k & z A.cX",
"cXb.q * b V (.W F K F K ~ ~ ~ ^ T H u % ; ; - } 4X0X|.>X'.tXlXlXaX5X$X|.'..XwX=Xn = ; - % < r s U G D C h a w x m ~.3 8 i 0 b.cX",
"cXs.> < . * n v F F F K T T T T v > t ; ; ; - $.2XlX3XD.@XpXlXlXaX3X=X/.`.fXpXoXB = - - - % w e C G D D k a t o X m : p t + s.cX",
"cX+., ' 6 { u v F n n K L L I 8 u % t R { | 9 @.2XfX,X^.;XpXlXlXaX3X=XT.D.sXpXoXm f 7 = 7 u.s w s U S D C d 3 v F H L j j v p.cX",
"A.X.6 W 5 (.@.v n v n F K v j & 3 S Z ! 4.*.x.8.%XfX>X/.;XpXlXlXaX3X=XT.D.<XpXI.f.x.i A S <Xc w r G G D D 8 u j n c n c j h +.A.",
"n.g 8 ) C (.J v v v v F v u * Z V P _ -.D.j.m.T.'.<X~.P.;XpXlXlXaX3X=XT.G.(.>X/.P.d.h.l.p >Xa 3 r D U G p V p F n n M c j h O.n.",
"v.q ` *.t N.j v v v v n < t i V >.1.1.| l.oXm.T.#X,X}.~.'.7XlXlXaX3X$X/.D.`.oXT.G.m.P.+.5 !.8 < a l [ V V i P ! ] ~ J c c j X.v.",
"c.1 t x * < s v v v v 1 u < K ,.>XyX@X4.f.OXD.P.OX;X7XsX9X.XsXlXaX,X'.%X;X#XT.P.G.m.P.X.$ e < , s k S C 6 P T !.yX,Xf.v c j Q c.",
"d.>     R 7.h l j h w 5 5 ! _ ~ &.9.X.~ *.).@XD.OX;X5XaXfXdX0XdXpX>X4X2X=XOXT.P.m.I.G.q % O u 6 5 h S 5 G ~ P Q =.o.m n c j B d.",
"d.: , ; 4.j.d j j h O w ! ~ { 2.].{.W.5._ x.3X`.).;X5XaXdXzXyX9X9X9X5X2X=XOXT.G.^.OXi.% 9 A i j K w & G _ ~ T N.{.(.6.v c j B d.",
"d.: * & &.h.s j h h - Z ! ~ { -.z.(.h.#.1.E.,XtX(.%X5XaXdXlXlX.X.X7X5X2X=XOXI.^.%X).$.; N.wX@X%.n p 4 | _ ] -.h.|.^.6.n c j B d.",
"d.> $ . t m y h h d Z p t ^ ~ } 9.y.9.u.XXiX}.pXiX}.,XaXfXzXzX.X.XpX5X2X=XI.`.4X%X|.yX[.W r 0 # 3 v 1.p F @.N.t.9.7.=.! R K Q d.",
"c.3 f i * 6 u h d d j 6 L 3 T ;.|.tX$X3XlXlX4X|.sXsX>X>XtXdXlX9X<X7X2X%X'.<XsX9X>XdXdX5X).c . 4 K F R L t Q 9.3.;.#.=.^ { T @.c.",
"v.w p u V W.j d d s d v 5 G u l b b ) ~.sXdX7X=X^.|.<X@X`.].[.{.[.W.~.|.wXyX|.'.pXlXpX).i.q = 9 v L { l F m 9.r.e.2.7.^ { P %.v.",
"n.x 6 p p ^.n s s a s s k u 5 ^ V _ { _ $.=.8.h.`.yX9X).x.'.tXlXaX,X/.!.9XiXtX^.C.B.W #   $ = V v _ _ K p @.7.w.e.e.9.! { P 6.n.",
"A.X.: ' 6 C.m y s y a s s u K * V H v L P C . u 4XlX7XOXm.$XaXlXpX=XP.m.5XlXaX@X1   . % = - 4 K n | T K F n =.u.u.u.M.I _ K i.A.",
"cXi.* 0.p 3 > y a y y a s s s i D $ Z I K D 4 V.aXfX7XOXm.OXaXlXpX=XP.m.5XlXaX;Xf.- ; ; - = f K L ..T K F K j $.E @.B c j j g.cX",
"cXs.: k V 5 >.u y r r a d s s h t 9 l $ $ $ 7 '.aXdX,Xl.X.).aXlXpX=XP.O.!.tXpX;XD.4 - - - ; L F | | T K K L F X . ~ > 4.b # s.cX",
"cXb.r C *.p `.H r y r r d h h h a h 8 - ; ; 6 i.f.$.2 X X z.aXlXpX=Xg.X X 3 ) 6.+.< - - = A I L 1.] T K L I v L | `.u $.y s b.cX",
"cXA.O.: 4.t C.6.w y r r s k h k h y d 7 - ; =     . % ; = e <XlXpX'.q = - $ .     % - - 7 ^ L >.>.~ T I T I H B V.V.k $.* %.A.cX",
"cXcXg., ) D l Q 3 y y r y k l l C k a k 4 ; ; ; ; ; ; ; ; $ M 9X>Xg $ ; ; ; ; ; - - - 4 } I ] q.} ^ T T T I n h 9.J 3 h , g.cXcX",
"cXcXF.a t 0.* < i y y r r h C C D D h a v 4 - ; ; 4 9 9 9 ; $ t l , 9 ; ; ; ; ; - - 4 | ~ ^ w.:.] ~ ! ~ T H n V 5 . b u j b.cXcX",
"cXcXcXi.* W V ^ ].s y y y s C D C G U l h D 7 - - 9 ] ^ } 4 - 9 ] ^ ! 4 ; ; ; - = 9 >.^ ` w.3. .} ^ ^ T ! F / W.v 5 O + i.cXcXcX",
"cXcXcXH.8 6 ' 1 ~.7.y s a y d G U G Y Y C l P A 4 7 H n I 4 - f ^ n n ; - - = ; ( 2.} } w.w.>. .} ] ~ ^ I H V.!.8 W 5 t v.cXcXcX",
"cXcXcXK.i.& t p x 6.1 a a a a l Y [ U Y Y D D P { R ^ n H , = 9 ^ n n - - 4 A 2.:.-.-.w.w.<.:. .} ^ ` ! H h V.) M 8 * f.K.cXcXcX",
"cXcXcXcXH.s 8 u . # p s s s d d C [ [ G G G M P R ,.0.9.7.f 7 A ;.Q @.( ..w.2.;.;.:.5.e.3.2.>. .} ] ` H I V > 5 W 3 l H.cXcXcXcX",
"cXcXcXcXcXl.O , 2.< E.u.s h h h k D [ Y G G D n M $.9.0.M.r.e.t.N.M.M.5.2.:.:.;.2.5.e.q.3.2.;.} ] } I ^ E.N., M 3 * l.cXcXcXcXcX",
"cXcXcXcXcXY.%.< &.C g }.$.h l k k l D Y Y P D n c B m E *.U U 5.0.7.7.:.-.#.-.<.q.w.w.q.3.:.} } -.! I M.|.q #.@.O 7.J.cXcXcXcXcX",
"cXcXcXcXcXcXU.a > =.u g B > k l l b b F P P K H c c j c E  .w. .I j B Q / #.:.2.w.w.w.q.:.} ;.-.! ! 8 7.) < # + F L.cXcXcXcXcXcX",
"cXcXcXcXcXcXcXS.< 2 ,.w . t.r.l C D D D K P P H n c H c @.W.>XN.! n j E #.;.<.3.w.e.3.;. .:.-.! / M.4.O t &., 6 S.cXcXcXcXcXcXcX",
"cXcXcXcXcXcXcX*Xz., a #.p b |.0.l D G K P P R T H M j n @.E.}.M.! j E / #.;.2.w.q.<. .:.:.#.^ ' Q.|.m p k 1 5 x.K.cXcXcXcXcXcXcX",
"cXcXcXcXcXcXcXcX:XV.& x t * g f.8 p G Y T T R _ { } ~ K k *.8.m u E / -.<.2.2.<.:.<.2.;.` / C F C.a l 4.> * z.R.cXcXcXcXcXcXcXcX",
"cXcXcXcXcXcXcXcXcX:XC.& + -.h X 5 Q.u.R R _ { { | | ..>.1...| ..1.1.3.3.3.2.2.2.2.:.-.-.2.Z.V.< & > r > 5 x.R.cXcXcXcXcXcXcXcXcX",
"cXcXcXcXcXcXcXcXcXcX:XW.5 1 l G O m [.C.t S _ | ....>.>.1.1.3.3.3.3.3.3.3.2.<.;.-.-.P F [.[.x Z u W * 6 ~.R.cXcXcXcXcXcXcXcXcXcX",
"cXcXcXcXcXcXcXcXcXcXcX*X}.V > 3 4 T 1 a i u.Z.5.| ....>.1.1.1.1.<.<.<.:.;.;.;.;.t.E.9.p g w b $.w + ~ _.*XcXcXcXcXcXcXcXcXcXcXcX",
"cXcXcXcXcXcXcXcXcXcXcXcXcX1Xt.% 5 *.` J 5 N ].`.~ S t.r.1.| >.1.1.>.| 3.t.t.V 4..X!.x 6 8 O 1 X , M.+XcXcXcXcXcXcXcXcXcXcXcXcXcX",
"cXcXcXcXcXcXcXcXcXcXcXcXcXcX6X[.S O h J 9.t 1 # > T [..XV.f y.{.[.4.Z ]..X!.k < d 3 ,.W W $ $ _ `.-XcXcXcXcXcXcXcXcXcXcXcXcXcXcX",
"cXcXcXcXcXcXcXcXcXcXcXcXcXcXcXcXrXQ.f & q / $., ;.p y r w , M =.%.r * q 2 1 V -.l M ) : & S W.&XcXcXcXcXcXcXcXcXcXcXcXcXcXcXcXcX",
"cXcXcXcXcXcXcXcXcXcXcXcXcXcXcXcXcXeXrX].( * O * B ~ 7.' J V M l ' ^ T p h =.D ) < * * | ].1XcXcXcXcXcXcXcXcXcXcXcXcXcXcXcXcXcXcX",
"cXcXcXcXcXcXcXcXcXcXcXcXcXcXcXcXcXcXcXcXkXXXZ.[ , & : w < & 1 2 a s g u > o + < [ Z. X8XcXcXcXcXcXcXcXcXcXcXcXcXcXcXcXcXcXcXcXcX",
"cXcXcXcXcXcXcXcXcXcXcXcXcXcXcXcXcXcXcXcXcXcXgXkXqX{.Z.r.[ A f 7 6 i V [ r.Z.{.1X8XeXcXcXcXcXcXcXcXcXcXcXcXcXcXcXcXcXcXcXcXcXcXcX",
"cXcXcXcXcXcXcXcXcXcXcXcXcXcXcXcXcXcXcXcXcXcXcXcXcXcXxXkXjXhXuXuXuXuXhXjXkXgXcXcXcXcXcXcXcXcXcXcXcXcXcXcXcXcXcXcXcXcXcXcXcXcXcXcX"
};
