/* XPM */
static char *result[] = {
/* columns rows colors chars-per-pixel */
"16 16 44 1 ",
"  c #38332B",
". c #3E392D",
"X c #463E2D",
"o c #4A3F2B",
"O c #4E4129",
"+ c #51452E",
"@ c #57492D",
"# c #54482F",
"$ c #5F4B2B",
"% c #4D4430",
"& c #514833",
"* c #564B31",
"= c #574D35",
"- c #5A4E33",
"; c #5C5135",
": c #5F5535",
"> c #66502A",
", c #66522B",
"< c #65502F",
"1 c #6F592E",
"2 c #615437",
"3 c #695430",
"4 c #6A5732",
"5 c #6A5931",
"6 c #6B5C34",
"7 c #63573B",
"8 c #635A38",
"9 c #675A3B",
"0 c #6A603B",
"q c #71613B",
"w c #766639",
"e c #7A6D40",
"r c #7C6C41",
"t c #957337",
"y c #897744",
"u c #94824D",
"i c #AA8D47",
"p c #B79C51",
"a c #C39842",
"s c #C19F4E",
"d c #CBAA55",
"f c #D3B45B",
"g c #DFC365",
"h c None",
/* pixels */
"hhhhhe0880ehhhhh",
"hhhw:;772;*@1hhh",
"hh5*797q2;-*#,hh",
"h1*277292*=+++1h",
"h@;;9=%.X X&o#@h",
">*-;& ruuq X%o+>",
"$*#%%qsgfs9+%o+$",
"O#o*ridgfat+X2q<",
"O+X*ypffddi-%9q<",
"$#oX%qpdsp;.*-23",
">*ooX Xqq. &;*#>",
"h@+o&%&X%.=7;;@h",
"h1*#&#-927972#1h",
"hh6#-;;92992*4hh",
"hhhw:-2772;@whhh",
"hhhhhe0880ehhhhh"
};
