/* XPM */
static const char *bdtcoin16[] = {
/* columns rows colors chars-per-pixel */
"16 16 197 2 ",
"   c #333029",
".  c #37332B",
"X  c #38342B",
"o  c #3A352B",
"O  c #3C372A",
"+  c #3A362D",
"@  c #3C362C",
"#  c #3F3A31",
"$  c #473D2B",
"%  c #413B2E",
"&  c #433C2D",
"*  c #433D2E",
"=  c #443C2C",
"-  c #443D2C",
";  c #483C29",
":  c #4A3F29",
">  c #483D2B",
",  c #4C3F28",
"<  c #483F2D",
"1  c #4A402B",
"2  c #4A412B",
"3  c #4B412B",
"4  c #4F4128",
"5  c #48402D",
"6  c #4A402C",
"7  c #4D422F",
"8  c #4E432F",
"9  c #4F442D",
"0  c #4D442F",
"q  c #4F452E",
"w  c #4F462F",
"e  c #50432D",
"r  c #50452C",
"t  c #51462D",
"y  c #52462C",
"u  c #53462C",
"i  c #50452F",
"p  c #53472F",
"a  c #51482E",
"s  c #53482E",
"d  c #55492D",
"f  c #56492C",
"g  c #56492D",
"h  c #554A2D",
"j  c #54482E",
"k  c #564A2E",
"l  c #564A2F",
"z  c #574B2F",
"x  c #59492B",
"c  c #5B4A2A",
"v  c #5D4C2C",
"b  c #474031",
"n  c #4A4230",
"m  c #4C4230",
"M  c #4D4330",
"N  c #4D4331",
"B  c #4F4430",
"V  c #4E4630",
"C  c #4F4532",
"Z  c #534630",
"A  c #514734",
"S  c #514830",
"D  c #534931",
"F  c #504932",
"G  c #514A33",
"H  c #554A30",
"J  c #554B30",
"K  c #564A30",
"L  c #564A31",
"P  c #544932",
"I  c #574A32",
"U  c #574B32",
"Y  c #564B33",
"T  c #574E32",
"R  c #524936",
"E  c #554A34",
"W  c #564D34",
"Q  c #574D37",
"!  c #594B33",
"~  c #584D30",
"^  c #594D31",
"/  c #5B4C31",
"(  c #584D33",
")  c #5D4F33",
"_  c #5A4D34",
"`  c #5A4E36",
"'  c #5A4F36",
"]  c #5B4F36",
"[  c #574E39",
"{  c #5A5033",
"}  c #5B5033",
"|  c #5D5133",
" . c #5B5036",
".. c #5B5136",
"X. c #5D5035",
"o. c #5C5235",
"O. c #5D5235",
"+. c #5D5137",
"@. c #5F5336",
"#. c #5E5435",
"$. c #5F5338",
"%. c #634C26",
"&. c #634E29",
"*. c #624C2A",
"=. c #624D2C",
"-. c #65522A",
";. c #68512B",
":. c #6C5429",
">. c #68532F",
",. c #6B542C",
"<. c #6D562F",
"1. c #6E582D",
"2. c #675331",
"3. c #625234",
"4. c #615336",
"5. c #635336",
"6. c #605534",
"7. c #615436",
"8. c #615437",
"9. c #615537",
"0. c #645436",
"q. c #6A5631",
"w. c #6A5634",
"e. c #645937",
"r. c #6A5830",
"t. c #6B5B33",
"y. c #6E5930",
"u. c #685C36",
"i. c #605438",
"p. c #605638",
"a. c #615739",
"s. c #635739",
"d. c #61553A",
"f. c #62553A",
"g. c #63563B",
"h. c #62573B",
"j. c #62563C",
"k. c #635938",
"l. c #635839",
"z. c #62583A",
"x. c #62593A",
"c. c #665839",
"v. c #645A39",
"b. c #66593B",
"n. c #64583C",
"m. c #64593C",
"M. c #665B3D",
"N. c #645A3F",
"B. c #665B3F",
"V. c #695A39",
"C. c #695D3B",
"Z. c #6A5C3B",
"A. c #6A5E3A",
"S. c #6D5F3A",
"D. c #6F5E3A",
"F. c #735F30",
"G. c #705F38",
"H. c #6A623C",
"J. c #6F623F",
"K. c #756136",
"L. c #726239",
"P. c #746039",
"I. c #71623D",
"U. c #74653D",
"Y. c #74673C",
"T. c #786738",
"R. c #776838",
"E. c #7A6B3E",
"W. c #6C6340",
"Q. c #7B6D42",
"!. c #7D6C40",
"~. c #7D7243",
"^. c #797046",
"/. c #947336",
"(. c #897643",
"). c #94824B",
"_. c #91824E",
"`. c #A68641",
"'. c #AB924C",
"]. c #B5994E",
"[. c #BC9A4B",
"{. c #B69B50",
"}. c #B9A054",
"|. c #C29742",
" X c #C2A14F",
".X c #C1A150",
"XX c #C6A754",
"oX c #C9A852",
"OX c #CEAC52",
"+X c #CAAD59",
"@X c #CEB15A",
"#X c #D2B157",
"$X c #D6B255",
"%X c #D4BB65",
"&X c #DDC367",
"*X c #E0C162",
"=X c None",
/* pixels */
"=X=X=X=X=X~.H.k.e.u.R.=X=X=X=X=X",
"=X=X=XT.8.o.a.k.a.o.K f F.=X=X=X",
"=X=Xr.K a.m.m.J.$.../ f f -.=X=X",
"=X1.K 8.a.a.5.V.5.K Q 9 p p :.=X",
"=Xf o.o.m.Q B % * X 6 S 1 p c =X",
"&.K ! ' A + Q._.).I.  = B > p %.",
"c K Z 7 M P..X*X$X[.w.p 9 6 e &.",
"4 p > K !.`.OX&X#X|./.9 < o.G.=.",
", 9 > K (.}.@X%X+XoX'./ M v.S.2.",
"v f > $ 7 S.].XX X{.{ @ E ' 5.>.",
",.f > 1 = X * Y.L.O . R ' K f ;.",
"=Xf p 1 S n B b M # [ j.' ) p =X",
"=Xy.f a S S / C.0.a.m.a.5.f <.=X",
"=X=Xr.a T ....C.a.m.v.8.f q.=X=X",
"=X=X=XY.#.{ a.k.k.8.| / K.=X=X=X",
"=X=X=X=X=X^.W.k.v.C.E.=X=X=X=X=X"
};
