/* XPM */
static const char *bdtcoin64[] = {
/* columns rows colors chars-per-pixel */
"64 64 217 2 ",
"   c #1C1C1C",
".  c #231E17",
"X  c #211F1A",
"o  c #24221D",
"O  c #2A251D",
"+  c #2D291E",
"@  c #2B2417",
"#  c #322B1D",
"$  c #3C311D",
"%  c #36311F",
"&  c #1E1F20",
"*  c #242423",
"=  c #292721",
"-  c #2D2A23",
";  c #262728",
":  c #272829",
">  c #2A2A2A",
",  c #322D23",
"<  c #312F2A",
"1  c #363124",
"2  c #3B3425",
"3  c #34312B",
"4  c #3B352B",
"5  c #3E392B",
"6  c #3F3923",
"7  c #3A3731",
"8  c #3D3932",
"9  c #353431",
"0  c #41351E",
"q  c #423723",
"w  c #453A26",
"e  c #483E26",
"r  c #453C2A",
"t  c #493E2A",
"y  c #413728",
"u  c #433D32",
"i  c #513F23",
"p  c #4D4226",
"a  c #4D422D",
"s  c #46412D",
"d  c #52452D",
"f  c #54492D",
"g  c #5B4B2E",
"h  c #574527",
"j  c #5E522D",
"k  c #4C4432",
"l  c #4F4833",
"z  c #4A4537",
"x  c #534631",
"c  c #544A33",
"v  c #5A4D34",
"b  c #534D39",
"n  c #5A4E39",
"m  c #555037",
"M  c #5D5136",
"N  c #5D533A",
"B  c #58523A",
"V  c #644C25",
"C  c #664F2A",
"Z  c #66542D",
"A  c #6C542C",
"S  c #685429",
"D  c #7C5D2A",
"F  c #745827",
"G  c #614F33",
"H  c #625334",
"J  c #665935",
"K  c #6B5B35",
"L  c #62553A",
"P  c #645A3D",
"I  c #6A5C3A",
"U  c #6A5532",
"Y  c #725D34",
"T  c #725E39",
"R  c #6D6139",
"E  c #756235",
"W  c #73623C",
"Q  c #7B663C",
"!  c #7D6A3B",
"~  c #7C6735",
"^  c #7F703F",
"/  c #5C5641",
"(  c #665D41",
")  c #685E42",
"_  c #605740",
"`  c #6A6244",
"'  c #726643",
"]  c #756A43",
"[  c #7D6C44",
"{  c #796D49",
"}  c #7C7247",
"|  c #83642B",
" . c #8B662A",
".. c #936C2C",
"X. c #9B712D",
"o. c #816534",
"O. c #846D3C",
"+. c #876C37",
"@. c #926E31",
"#. c #8D7235",
"$. c #8A723D",
"%. c #98783A",
"&. c #A3742D",
"*. c #AC7A2D",
"=. c #A8782C",
"-. c #B27E2D",
";. c #A37C36",
":. c #A27D3B",
">. c #AB7D33",
",. c #816E42",
"<. c #847343",
"1. c #837349",
"2. c #8A7947",
"3. c #927D43",
"4. c #9B7C42",
"5. c #937E49",
"6. c #867F55",
"7. c #AD8135",
"8. c #A5823E",
"9. c #A88238",
"0. c #B38333",
"q. c #BC8C37",
"w. c #BC8C39",
"e. c #B4893A",
"r. c #BA903D",
"t. c #B9812D",
"y. c #C38E36",
"u. c #C3943C",
"i. c #C8993F",
"p. c #D8A03F",
"a. c #9D8445",
"s. c #95824B",
"d. c #9D864B",
"f. c #9D8A4C",
"g. c #988346",
"h. c #898054",
"j. c #998A52",
"k. c #9A9059",
"l. c #A48544",
"z. c #AB8A44",
"x. c #A38C4A",
"c. c #A68A47",
"v. c #B38C41",
"b. c #AC934C",
"n. c #A8924C",
"m. c #BC9542",
"M. c #B4934B",
"N. c #BA9B4D",
"B. c #B4974B",
"V. c #A18C50",
"C. c #AA9352",
"Z. c #AC9B54",
"A. c #AC9D5C",
"S. c #A49455",
"D. c #B49C53",
"F. c #BA9E52",
"G. c #B29E59",
"H. c #BCA55A",
"J. c #BAA55A",
"K. c #A99D60",
"L. c #BCAB63",
"P. c #B6A965",
"I. c #BFB267",
"U. c #A9A067",
"Y. c #C39942",
"T. c #C99E43",
"R. c #C29D4B",
"E. c #C89F4B",
"W. c #CCA246",
"Q. c #CEA64A",
"!. c #C9A54D",
"~. c #D2AA4D",
"^. c #D6A848",
"/. c #C2A553",
"(. c #CDAB53",
"). c #CAAE59",
"_. c #C4A858",
"`. c #D2AE54",
"'. c #CCB15D",
"]. c #D6B254",
"[. c #DAB556",
"{. c #D4B55D",
"}. c #DAB75A",
"|. c #DCBA5B",
" X c #DBB24C",
".X c #E0BB59",
"XX c #E2B34A",
"oX c #C3AF60",
"OX c #CBB462",
"+X c #C8B766",
"@X c #D5BC64",
"#X c #D7BD65",
"$X c #C9BC72",
"%X c #E8C45C",
"&X c #DCC265",
"*X c #D5C36B",
"=X c #DBC96E",
"-X c #DBC56C",
";X c #DAC872",
":X c #E3C463",
">X c #E3CB6C",
",X c #E9CE6B",
"<X c #E5C968",
"1X c #EDD16D",
"2X c #E5D06E",
"3X c #F0D66D",
"4X c #E3CE72",
"5X c #E4D272",
"6X c #EED571",
"7X c #E9D87A",
"8X c #F1D671",
"9X c #F3D974",
"0X c #F0DC78",
"qX c #F6E279",
"wX c #F9EE88",
"eX c None",
"rX c black",
/* pixels */
"eXeXeXeXeXeXeXeXeXeXeXeXeXeXeXeXeXeXeXeXeXeXeXeXeXeXwXwX7X5X=X*X*X*X=X2X9XqXeXeXeXeXeXeXeXeXeXeXeXeXeXeXeXeXeXeXeXeXeXeXeXeXeXeX",
"eXeXeXeXeXeXeXeXeXeXeXeXeXeXeXeXeXeXeXeXeXeXwX7X+XZ.2.J d 6 1 % # % 2 p j ~ a./.&X3XeXeXeXeXeXeXeXeXeXeXeXeXeXeXeXeXeXeXeXeXeXeX",
"eXeXeXeXeXeXeXeXeXeXeXeXeXeXeXeXeXeXeXeX5XH.<.a # o O O - < s v H l c O - , o @ w ~ b.}.eXeXeXeXeXeXeXeXeXeXeXeXeXeXeXeXeXeXeXeX",
"eXeXeXeXeXeXeXeXeXeXeXeXeXeXeXeXeXqX&Xd.f O - a H H I g x r a d g a M , c H W x a O O e #.!.%XeXeXeXeXeXeXeXeXeXeXeXeXeXeXeXeXeX",
"eXeXeXeXeXeXeXeXeXeXeXeXeXeXeXeX#X3.6 , 1 J f y 2 y 5 s a - l { ] d - r r - a d J J M   o $ +.Q.eXeXeXeXeXeXeXeXeXeXeXeXeXeXeXeX",
"eXeXeXeXeXeXeXeXeXeXeXeXeXeX:Xx.e o r H I w 1 r 1 k A.oXa.l I n.x.T z s.L.C.a < r 5 2 - M 1 o 0 %. XeXeXeXeXeXeXeXeXeXeXeXeXeXeX",
"eXeXeXeXeXeXeXeXeXeXeXeXeX(.Y o l c c 5 1 v A.J.I k I J M N N M M M n c H Z t M G.j.c = , v c   . C Y.eXeXeXeXeXeXeXeXeXeXeXeXeX",
"eXeXeXeXeXeXeXeXeXeXeX%XM.e - v H v 5 L z W <.J L ( ( ( ( P P P P L L M M v v c j ! E r c r , k H X 0 9.XXeXeXeXeXeXeXeXeXeXeXeX",
"eXeXeXeXeXeXeXeXeXeX.X%.#   , g 1 L L.x.x c P P ( ( ( ( ( ( ( P P P P N N M M v c d t r d.Z.x 2 a I , @ ..^.eXeXeXeXeXeXeXeXeXeX",
"eXeXeXeXeXeXeXeXeX X#.O - k < = 5 2.^ M P ( ( P P P P ( ( ( P P P P P L N M M M v c f d d ~ $.< - h H r . | W.eXeXeXeXeXeXeXeXeX",
"eXeXeXeXeXeXeXeX^.#.o r I r L V.c a L P P P P P P P P L v 1.j.I k v v M M M m v c c c f a t 2 r 6.s h c a . | W.eXeXeXeXeXeXeXeX",
"eXeXeXeXeXeXeX^.%.O c 5 y M oXO.M P P L P L P P L M v g H 3.n.! v d v v v v v M v c x c d a a t ! D.a a H o .  .p.eXeXeXeXeXeXeX",
"eXeXeXeXeXeXeX;.# 1 y , * I K M L L L L L L L L M v v d H x.H.$.v d d d d c v M M c c x a a a w q Z A o o l 5 O X.eXeXeXeXeXeXeX",
"eXeXeXeXeXeXe.0 r M 1 N [ 4 v M L L L L L P L H v G d d f p p d v d v g f c c c c v M c x a a a q w , P b t r - $ 0.eXeXeXeXeXeX",
"eXeXeXeXeXu.V * f v m _.K M M M M M L P P P L M v H v v I b b ) [ W T v c f c c c x c m m l a a t w q U G.s c c o h y.eXeXeXeXeX",
"eXeXeXeXeX@.- x e O 2.O.v M M M M L ) ( P L L H M I Q [ ,.' ` ] ,.Q Q L M v c c c c c c m m l a t t q w ~ +., H H X | eXeXeXeXeX",
"eXeXeXeX0.0 2 J 5 8 r x v v v v M ` ) P P L L L P W Q W I r < r M g g a x v v c x c c c c m c l a t e y q 2 - r J 1 $ *.eXeXeXeX",
"eXeXeXu.D * < + I 5.t v v v v M ( ) ( ( ( P L L L v g d d - * 5 v d d * * = 5 d d d x c m c c c a t t q q 2 1.m v K X F y.eXeXeX",
"eXeXeX>.$ x W 4 G.E v v v v v ( ( ( ( ) L L L l = < d d c < > 4 t r r - > * * * 5 d a a c m c c x a r t q y E x.5 K a # =.eXeXeX",
"eXeXeXD * f 2 x g.c c v v v N P L ( ( L M M 1 * ; - , , < > > * * * * > ; > > : * - a t a c m c x l t r q y e %.d d a o F eXeXeX",
"eXeX7.w k f = r 5 c c c c v L N P P N v v , * > > 4 B 3 * > > 8 9 > > 9 / u > > > * * r t a c c l l a t r q q $ , - Q 5 $ *.eXeX",
"eXeX..O d d P [ k c c c c M M M N M v v - ; > > ; c @XI.B > / $XP.z b P.[.U ; ; > > * * r q a c x x l a w q y 2 I c f d o  .eXeX",
"eX0.V 4 r 4 x.~ x x c x v M v M M v v 1 * > > 8 b v (.1XR.1.;X9X,X_.C.,X~.A 8 ( 4 > > * - q q x c l l a r r q y ! g.r a = V t.eX",
"eX*.q - d a n.v x x x x v v v v v x r * > > > M {.+XD._.B.#X8X6X:X|.!.F.N.J.@XQ.d : > > * 1 q t c x l l t r y d h l.1 5 r $ =.eX",
"eX.., 1   - d a x x x c c c c v a , r > > > : H ].8X[.l.F.:X6X6X:X[.^.z.M.1X:XY.g ; > > > * y q l c l l a r r o X h , r r O ..eX",
"eXD < M 4 n r d x x x c c c c y r * r n n N 7 H ].1X`.z.~.:X6X6X:X[.Q.u.8.:X:XY.h u 4 ; 7 { t q t c x l a t 1 a x x x a a a  .eX",
"-.V 4 v 4 C.H d d d x x x a a = 1 x k v I I %.~ /.1X/.v.~.:X6X6X:X[.Q.u.9.'.:Xm.o.:.r z l ).a y q x c x x 5 r a d d d d a t D -.",
"*.i r M l n.f a d d d x a r - l s c v M 8.$.;.u.M._.x.w.~.:X6X6X:X[.Q.u.7.n._.v.q.&.$.%.t /.t 2 q l c x r a t x d d d d a t A *.",
"=.q M K r O.a a a a d d 1 r r a N L P N %.Y.;.u.W.(.B.l.B.|.6X6X:X[.W.e.8.M.Y.y.0.;.w.D 1 a.5 , t a c k a r c v v v v d a t C *.",
"&.1 w d = 1 t a a a a 1 r 1 x I _.-XN.I o.T.8.w.T.~..X:X+XH.>X8X:X(.B.!.~.W.u.q.0.:.w.V * q 1 < t a c l 4 c c a.-X).+.d d a g =.",
"X.,     c T t a a t y 4 1 v v v U W Z v K Y.R.9.T.~.}.:X1X5XI.,X&XH.[.].Q.T.u.q.;.v.0.2 * * r 4 1 t x 4 x v c g R S h d d a g &.",
"X., < - I $.t a a t o y v v M P j.U.d.I M %.[.b.m.~.}.:X,X9X*XOXOX'.|.`.Q.T.u.0.z.T.| * 7 z r a x r = x v c c <.A.n.T d d a g &.",
"X., - * K +.t a t t - k v v n M %.n.#.H P 5.`.&Xn.!.|.:X,X9X6XL.H.#X}.`.Q.T.r.z.(.m.H > <.@XH.U d r < m v v L $.D.z.Y d d a g &.",
"X., * & r h r t t t k t r v v M W { W } L.>XD.&X=XZ.(.:X1X9X9XL.J.:X}.].Q.m.M.{.!.F.-XS.g w $ + 4 k _ r x H <.] W T Y v c c g &.",
"&.1 u r - 4 r t t t a 4 c 1 c H F.@XE.[.8X8X{.D.=X>XJ.J.@X5X6XOX_.|.].!.N.oX>X'.J.4X,X[.m.d & 3 x x n c r G W P L H Y v m c H =.",
"*.q r r k d.a t t t t a 1 c r a d d g c.&X,X.XQ.z.J.).H.b.x.S.A.S.d.x.D.+X*XJ.B.:X9X:XN.| q * 5 x c m a x d W ` ) P T v m c U *.",
"*.h 4 r a c.d t t t t t a r 3 v a v m v H R ! #.b.=X{.R.:.B.&X6X:X(.v.l.'.=X@Xz.g.<.g #   * * k d v v c t H T ) ` ) W v m x Y *.",
"-.C , M 4 3.h r t r r t t r x - u d a x c l X r @X8X|.T.:.W.:X6X:X~.w.:.}.8X:XR.1     * > > > x d M c x x d K [ 1.1.O.c v x o.*.",
"eX| - Q r 2 , r r r r t t t t r x * l c x x < 3.:X6X|.T.%.T.:X6X:XQ.w.:.[.8X:X~.o.> > > > ; u x c N c x x c a H g H g d t a @.eX",
"eXX., a a 4 L r r q q r t t t t r 8 a o * * 4 M.:X1X(.%.S Y.:X6X:X~.e.A l.&X:X~.;.< > > > > c x M M c c x c x X   v , K d + ..eX",
"eX>.q a I r b.f q r q q t t a t r t 4 > > > 5 ~ ! J 1 X o %.:X6X:X~.@.X X 2 j F F 1 > > ; u c c P v c c c c a c M b.r H r t *.eX",
"eX0.A - K r 3.E q r q q t a a a a r t 3 > > *       * > * y ).8X:Xm.q * > *       * > : 4 v c N L v c c c c x g 2.$.a H - A -.eX",
"eXeX@., H d a g 2 r r q r a a a l a r a 3 > > > > > > > > * f OX/.p * > > > > > > > > < n v m ( M v c v c c d t W f 1 a - @.eXeX",
"eXeX0.e r Q - 1 r q r q q a l l l x a r a 3 > > > 3 8 8 8 > & r a < 7 > > > > > > : 3 M v v ( L M v v v v x d a 1   a r a >.eXeX",
"eXeXeXo.- g a v j.t q r r t a x l c c a t x 4 > > 5 v v n 3 > 5 v v v < > > > > ; 7 L v v ( P M M v v v v d v x.d 1 o o o.eXeXeX",
"eXeXeX7.5 5 M 1 x.E r t r q t x c c c c a a c z > 4 d d c < > u v d d > > > ; > z L M M ( ) L L M v v v c x 2.l.y v 2 r >.eXeXeX",
"eXeXeXq.o.= r r d E 1 r t t t a c c c c c x x c m n v d x > ; 8 v d d - > 3 z ( L L L ( ) P L M M v v v d a 2.M x 5 - o.0.eXeXeX",
"eXeXeXeXe.t 5 r   - r t t t t t l m c x x x x c c J Q W I u 9 z L v H b / ) P L L L ( ) P P L M M v v c v k , 1 v 5 a 7.eXeXeXeX",
"eXeXeXeXeX%.o < P 1 s.} t a t a a l c c x x d d x H Q Q ,.` ` { <.! ! I P L L L L ( ) ( P P L M M M c v 5.O.< d 1 - %.eXeXeXeXeX",
"eXeXeXeXeXu.K 1 U a a B.H a a a a a x c c x d d d g f g K c c I ! T T L L H L L P ( ) ( P L M M L v v [ D.q H H o T q.eXeXeXeXeX",
"eXeXeXeXeXeXr.r , K r p g , a a a a a x x c c f d d a d v N ( M c a g v v H L P ( ( ( ( L M L L v v r T M 1 + O x e.eXeXeXeXeXeX",
"eXeXeXeXeXeXeXz.1 1 J y   ] R a a d d x x x c c d d f d H d.H.O.v d t v M L L P ( ) P L M L H v v [ I o r J , 4 l.eXeXeXeXeXeXeX",
"eXeXeXeXeXeXeXT.4.- w H r d J.Q a x x x c c c c c d a d H s.Z.O.v a v v M L P P ( P L L L M v v s.D.h a a 1 1 4.w.eXeXeXeXeXeXeX",
"eXeXeXeXeXeXeXeXQ.3.= d y - p o.4 r x c c c v M M m v c a K ~ h r v v H L P P P L P P L v v a x 3.w a K , - 4.u.eXeXeXeXeXeXeXeX",
"eXeXeXeXeXeXeXeXeX~.3.= * H a   4 s.} c c M m M m N N P P N m N P P P P P P P P P L H H J 2.<.1 O < w , 1 4.u.eXeXeXeXeXeXeXeXeX",
"eXeXeXeXeXeXeXeXeXeX~.f.4 1 a c o h Z.g.r x M m N N N P P P P P P P P P P P L L L L c x C.b.p l r v - 4 l.i.eXeXeXeXeXeXeXeXeXeX",
"eXeXeXeXeXeXeXeXeXeXeX].D.k , 2 1 c 1 e 5 1.6.P m N N N P P P P P P P L L L L L ' s.W r p y a J y o v M.i.eXeXeXeXeXeXeXeXeXeXeX",
"eXeXeXeXeXeXeXeXeXeXeXeXeX).' * 2 K M c 1 g f.b.v l ] ` P m N P P N M P ' ' a I H.a.p 5 5 o 1 X - ,.E.eXeXeXeXeXeXeXeXeXeXeXeXeX",
"eXeXeXeXeXeXeXeXeXeXeXeXeXeX|.Z.l o a f Q r 1 # < c Z.H.2.u [ A.C.I l V.H.a.a 1 e 1 I v g * * v M.^.eXeXeXeXeXeXeXeXeXeXeXeXeXeX",
"eXeXeXeXeXeXeXeXeXeXeXeXeXeXeXeX@Xj.r O 2 M H < L r w w y - d R U w - w 2 , a H a d H # + l f.`.eXeXeXeXeXeXeXeXeXeXeXeXeXeXeXeX",
"eXeXeXeXeXeXeXeXeXeXeXeXeXeXeXeXeX,X*Xk.b - o - g v W M c s f a M v c r a K d M 1 - - N x.`. XeXeXeXeXeXeXeXeXeXeXeXeXeXeXeXeXeX",
"eXeXeXeXeXeXeXeXeXeXeXeXeXeXeXeXeXeXeXeX4XI.6.b 1 - # y 1 = 1 1 e e a r , o O 1 m 6.J.|.eXeXeXeXeXeXeXeXeXeXeXeXeXeXeXeXeXeXeXeX",
"eXeXeXeXeXeXeXeXeXeXeXeXeXeXeXeXeXeXeXeXeXeX0X7X*XU.h.` B z u 4 4 5 s m ` h.A.OX&X%XeXeXeXeXeXeXeXeXeXeXeXeXeXeXeXeXeXeXeXeXeXeX",
"eXeXeXeXeXeXeXeXeXeXeXeXeXeXeXeXeXeXeXeXeXeXeXeXeXeXqX0X7X5X;X;X;X;X=X>X,X,XeXeXeXeXeXeXeXeXeXeXeXeXeXeXeXeXeXeXeXeXeXeXeXeXeXeX"
};
