/* XPM */
static const char *bdtcoin32[] = {
/* columns rows colors chars-per-pixel */
"32 32 167 2 ",
"   c #262627",
".  c #282723",
"X  c #2B2925",
"o  c #262728",
"O  c #272829",
"+  c #2B2A2A",
"@  c #332E26",
"#  c #322F2A",
"$  c #343127",
"%  c #3D3526",
"&  c #3F3827",
"*  c #35312B",
"=  c #3C362A",
"-  c #3D382C",
";  c #443A27",
":  c #493D26",
">  c #443C2A",
",  c #493E2A",
"<  c #413C31",
"1  c #4F4127",
"2  c #46402E",
"3  c #4C422C",
"4  c #5F4927",
"5  c #52452D",
"6  c #54492E",
"7  c #5A4B2E",
"8  c #474135",
"9  c #4E4531",
"0  c #4F4832",
"q  c #534631",
"w  c #544A33",
"e  c #5A4D34",
"r  c #5A4F3A",
"t  c #5D5136",
"y  c #5D5339",
"u  c #5D583F",
"i  c #624A24",
"p  c #684F27",
"a  c #634F29",
"s  c #67522C",
"d  c #69522B",
"f  c #6B5A2E",
"g  c #735729",
"h  c #755B2A",
"j  c #7A5B2C",
"k  c #604F31",
"l  c #645334",
"z  c #685635",
"x  c #665937",
"c  c #6B5B35",
"v  c #62553A",
"b  c #645A3D",
"n  c #6D5D3A",
"m  c #705F36",
"M  c #7F612D",
"N  c #6D6036",
"B  c #6E613B",
"V  c #746236",
"C  c #7C6535",
"Z  c #7F6835",
"A  c #73643B",
"S  c #79673E",
"D  c #76693E",
"F  c #7B6A3E",
"G  c #655D41",
"H  c #6E6341",
"J  c #756643",
"K  c #756940",
"L  c #756A40",
"P  c #7C6D42",
"I  c #7D6D41",
"U  c #7E7342",
"Y  c #7E7443",
"T  c #7D7145",
"R  c #7E7549",
"E  c #85622C",
"W  c #886228",
"Q  c #8B652B",
"!  c #8B692D",
"~  c #986F2C",
"^  c #856930",
"/  c #876B36",
"(  c #8C6B31",
")  c #816B3C",
"_  c #88703C",
"`  c #9B7733",
"'  c #997436",
"]  c #9C7937",
"[  c #92763E",
"{  c #90793D",
"}  c #9B793A",
"|  c #A17C36",
" . c #A07F3C",
".. c #807143",
"X. c #827445",
"o. c #877646",
"O. c #837343",
"+. c #887746",
"@. c #887644",
"#. c #847A47",
"$. c #8C7945",
"%. c #887A4A",
"&. c #917F46",
"*. c #917F4B",
"=. c #877E50",
"-. c #A6833C",
";. c #AB8D3E",
":. c #B18335",
">. c #B68C3D",
",. c #BC8F3A",
"<. c #BF923D",
"1. c #908146",
"2. c #95874F",
"3. c #968D52",
"4. c #978E59",
"5. c #A38B45",
"6. c #AF8F47",
"7. c #B28C42",
"8. c #A8954D",
"9. c #AB914C",
"0. c #B59246",
"q. c #BE9645",
"w. c #B0964F",
"e. c #B99648",
"r. c #BE9A49",
"t. c #A59355",
"y. c #AD9A55",
"u. c #AB9C5A",
"i. c #B69E50",
"p. c #B59C55",
"a. c #B1A056",
"s. c #BEA052",
"d. c #BDA559",
"f. c #AEA364",
"g. c #B1A660",
"h. c #C49A42",
"j. c #C19D4B",
"k. c #CBA247",
"l. c #C3A14F",
"z. c #CAA249",
"x. c #C1A656",
"c. c #C6A955",
"v. c #CCAC55",
"b. c #C5AC5B",
"n. c #C9AC59",
"m. c #D1AE53",
"M. c #C7B05E",
"N. c #CCB25D",
"B. c #D5B256",
"V. c #DAB656",
"C. c #D2B35C",
"Z. c #D6B95F",
"A. c #DBBB5E",
"S. c #E0BF5E",
"D. c #C6B264",
"F. c #D7BB62",
"G. c #D9BE63",
"H. c #E1C05F",
"J. c #DCC165",
"K. c #D7C16A",
"L. c #E2CB6F",
"P. c #E6CE6E",
"I. c #E9CD6B",
"U. c #EFD370",
"Y. c #F0D571",
"T. c None",
"R. c black",
/* pixels */
"T.T.T.T.T.T.T.T.T.T.T.T.g.3.#.Y U O.1.8.T.T.T.T.T.T.T.T.T.T.T.T.",
"T.T.T.T.T.T.T.T.T.a.U t 5 > % 3 5 % > 5 7 V 5.T.T.T.T.T.T.T.T.T.",
"T.T.T.T.T.T.T.i.A 5 3 3 3 K t B V e A 5 w % ; f ;.T.T.T.T.T.T.T.",
"T.T.T.T.T.T.{ 6 5 w e X.b H b b v y x e D 3 9 % 1 ( T.T.T.T.T.T.",
"T.T.T.T.T.Z % % t ..v b G G G b b y y e w 5 A 5 3 : j T.T.T.T.T.",
"T.T.T.T.C ; q P y v b b v t P +.e e e t e q 1 1 V 6 % g T.T.T.T.",
"T.T.T.^ , 3 e x v v v v e 6 c A e e 6 w e e 5 3 5 3 2 % M T.T.T.",
"T.T.` 1 > D x t v b b v l n x y S x e w e e w 3 ; 5 c 3 1 ~ T.T.",
"T.T.a > t w e t b G b v v z 9 - e , & 3 q w e q 3 ; : w 5 i T.T.",
"T.! , 5 S e e v G G y > # % * + @ X o . $ 3 q w 9 , ; c 6 : W T.",
"T.d 3 w q w e y v e = o - T < G u G B + o @ > q q 3 ; ; 5 3 i T.",
"T.: 3 S q w e e e % o < *.n.p.L.Z.x.w.o.-   @ , q 9 , ; m 3 : T.",
"E > > q q q w q % - < e A.l.B.U.S.h.n.m.5 + < , 9 0 3 % , , , Q ",
"g 3 B e q q 3 % > e ) } c.e.B.U.A.h.0.j.' z F 5 3 q , 3 5 5 5 E ",
"p 3 5 5 3 , % w +.D  .>.z.c.N.P.A.j.q.<.:.( 1 % , 9 3 x +.k 3 j ",
"4 . l 5 , % 9 v &.A _ r.z.H.P.K.C.B.k.,.>.s - 3 > > w n &.l 3 j ",
"4 . 7 1 , > q v &.@.t.N.n.A.Y.K.N.V.z.j.l.$.D l , 9 e S $.l q j ",
"d % q 3 , , > w ) 5.J.v.b.x.b.D.d.s.M.b.F.v.s X q w w n x l e E ",
"g > c 6 ; , > > 3 e x c N.v.0.J.B.7.J.c.c & . = w w w n J l e E ",
"E 3 3 3 ; ; , > > > * n J.0.-.I.V.| x.m.7 o + 9 y w q 3 w w 5 Q ",
"T.5 e V ; ; , 3 , = + > 5 @ 5 G.v.1 * 1 % + < e y w w q S 6 5 T.",
"T.d 5 1 > ; , 3 9 , * O + * + x n + + o o = e v t e w q 3 > d T.",
"T.( 1 q V > > 3 w q 3 - * q > # q > O + < y b v e e w F 3 % ( T.",
"T.T.s & 3 1 , 3 w w q q e z 9 < e 9 8 r v b b v t e e e > s T.T.",
"T.T.] 1 3 A 6 , 3 q q 5 e c x b A n v v b G b y e x A > 1 ' T.T.",
"T.T.T./ 1 5 3 e 3 q q w 5 5 V U e 7 t b G b v t x w 3 ; / T.T.T.",
"T.T.T.T.C 3 3 N 5 w w e w w V F w e v b b v v t S 5 > C T.T.T.T.",
"T.T.T.T.T.F > & q D e y y y y y v b b b v t ..e % > ) T.T.T.T.T.",
"T.T.T.T.T.T.&.9 > 6 t U y H b b b b H v O.e > % 6 [ T.T.T.T.T.T.",
"T.T.T.T.T.T.T.y.K q 3 > 3 D e A B t B 5 5 3 3 V 6.T.T.T.T.T.T.T.",
"T.T.T.T.T.T.T.T.T.u.R y q 3 & & 3 > > 5 t P 9.T.T.T.T.T.T.T.T.T.",
"T.T.T.T.T.T.T.T.T.T.T.T.f.4.=.R R %.2.y.T.T.T.T.T.T.T.T.T.T.T.T."
};
